# xmcd CD database file
#
# Track frame offsets:
#	150
#	14551
#	38285
#	56749
#	78191
#	94949
#	150602
#	169199
#	214139
#	234274
#	249782
#
# Disc length: 3671 seconds
#
# Revision: 0
# Processed by: cddbd v1.4PL0 Copyright (c) Steve Scherf et al.
# Submitted via: CDex 1.51
#
DISCID=7b0e550b
DTITLE=Brazil - Brazil Jazz
DYEAR=2003
DGENRE=Jazz
TTITLE0=Brazilian Soccer Theme
TTITLE1=Al Jarreau - Mas Que Nada
TTITLE2=Diana Krall and Rosemary Clooney - Boy From Ipanema
TTITLE3=Diane Reeves - Besame Mucho
TTITLE4=Jane Monheit -  Water Of March
TTITLE5=Keiko Lee - Afro Blue(Live)
TTITLE6=Manhattan Transfer -  The Zoo Blues(Asa)
TTITLE7=McCoy Tyner - Blue Bossa
TTITLE8=New York Voices - Desafinado
TTITLE9=Sarah Vaughan - Quiet Nights Of Quiet Stars (Corcovado)
TTITLE10=Vince Guaraldi Trio - Samba De Orpheus
EXTD=YEAR: 2003
EXTT0=
EXTT1=
EXTT2=
EXTT3=
EXTT4=
EXTT5=
EXTT6=
EXTT7=
EXTT8=
EXTT9=
EXTT10=
PLAYORDER=
